<svg width="32" height="32" viewBox="0 0 32 32" fill="none" xmlns="http://www.w3.org/2000/svg">
<g clip-path="url(#clip0_1_750)">
<path d="M14.2769 10.4546C14.0523 10.325 13.7975 10.2567 13.5382 10.2568C13.2788 10.2568 13.0241 10.3251 12.7995 10.4549C12.575 10.5846 12.3886 10.7712 12.259 10.9959C12.1294 11.2205 12.0613 11.4753 12.0615 11.7346V20.2673C12.0613 20.5267 12.1294 20.7815 12.259 21.0061C12.3886 21.2308 12.575 21.4173 12.7995 21.5471C13.0241 21.6768 13.2788 21.7452 13.5382 21.7452C13.7975 21.7452 14.0523 21.677 14.2769 21.5473L22.3999 16.8527C22.5496 16.7663 22.6739 16.642 22.7603 16.4923C22.8467 16.3426 22.8922 16.1728 22.8922 16C22.8922 15.8272 22.8467 15.6574 22.7603 15.5077C22.6739 15.358 22.5496 15.2337 22.3999 15.1473L14.2769 10.4546ZM0.246094 16C0.246094 11.8218 1.90587 7.81477 4.86029 4.86035C7.81471 1.90593 11.8218 0.246155 15.9999 0.246155C20.1781 0.246155 24.1852 1.90593 27.1396 4.86035C30.094 7.81477 31.7538 11.8218 31.7538 16C31.7538 20.1782 30.094 24.1852 27.1396 27.1397C24.1852 30.0941 20.1781 31.7538 15.9999 31.7538C11.8218 31.7538 7.81471 30.0941 4.86029 27.1397C1.90587 24.1852 0.246094 20.1782 0.246094 16V16ZM15.9999 2.21539C14.1897 2.21539 12.3972 2.57194 10.7248 3.26468C9.05237 3.95742 7.53276 4.97279 6.25274 6.25281C4.97272 7.53283 3.95736 9.05243 3.26462 10.7249C2.57187 12.3973 2.21532 14.1898 2.21532 16C2.21532 17.8102 2.57187 19.6027 3.26462 21.2751C3.95736 22.9476 4.97272 24.4672 6.25274 25.7472C7.53276 27.0272 9.05237 28.0426 10.7248 28.7353C12.3972 29.4281 14.1897 29.7846 15.9999 29.7846C19.6558 29.7846 23.162 28.3323 25.7471 25.7472C28.3323 23.1621 29.7846 19.6559 29.7846 16C29.7846 12.3441 28.3323 8.83792 25.7471 6.25281C23.162 3.66769 19.6558 2.21539 15.9999 2.21539Z" fill="#292D33"/>
</g>
<defs>
<clipPath id="clip0_1_750">
<rect width="32" height="32" fill="white"/>
</clipPath>
</defs>
</svg>
